<mxfile host="app.diagrams.net" modified="2024-06-13T00:30:05.568Z" agent="Mozilla/5.0 (Windows NT 10.0; Win64; x64; rv:123.0) Gecko/20100101 Firefox/123.0" etag="k7Tb3HayzNccQE_BnJ23" version="21.5.2" type="github">
  <diagram name="Page-1" id="lyMA4xQT6dWiiQApFJUH">
    <mxGraphModel dx="478" dy="792" grid="1" gridSize="10" guides="1" tooltips="1" connect="1" arrows="1" fold="1" page="1" pageScale="1" pageWidth="827" pageHeight="1169" math="0" shadow="0">
      <root>
        <mxCell id="0" />
        <mxCell id="1" parent="0" />
        <mxCell id="0njU8YuqFj3tKrnxhGzK-2" value="Польщователь" style="shape=umlActor;verticalLabelPosition=bottom;verticalAlign=top;html=1;outlineConnect=0;" parent="1" vertex="1">
          <mxGeometry x="150" y="580" width="30" height="60" as="geometry" />
        </mxCell>
        <mxCell id="0njU8YuqFj3tKrnxhGzK-3" value="Авторизация" style="ellipse;whiteSpace=wrap;html=1;" parent="1" vertex="1">
          <mxGeometry x="270" y="160" width="120" height="80" as="geometry" />
        </mxCell>
        <mxCell id="0njU8YuqFj3tKrnxhGzK-20" value="Поиск пользователей" style="ellipse;whiteSpace=wrap;html=1;" parent="1" vertex="1">
          <mxGeometry x="270" y="280" width="120" height="80" as="geometry" />
        </mxCell>
        <mxCell id="0njU8YuqFj3tKrnxhGzK-21" value="Отправка сообщений" style="ellipse;whiteSpace=wrap;html=1;" parent="1" vertex="1">
          <mxGeometry x="270" y="400" width="120" height="80" as="geometry" />
        </mxCell>
        <mxCell id="0njU8YuqFj3tKrnxhGzK-22" value="Добавление в друзья" style="ellipse;whiteSpace=wrap;html=1;" parent="1" vertex="1">
          <mxGeometry x="270" y="520" width="120" height="80" as="geometry" />
        </mxCell>
        <mxCell id="0njU8YuqFj3tKrnxhGzK-23" value="Просмотр новостей" style="ellipse;whiteSpace=wrap;html=1;" parent="1" vertex="1">
          <mxGeometry x="270" y="640" width="120" height="80" as="geometry" />
        </mxCell>
        <mxCell id="0njU8YuqFj3tKrnxhGzK-24" value="Создание постов" style="ellipse;whiteSpace=wrap;html=1;" parent="1" vertex="1">
          <mxGeometry x="270" y="760" width="120" height="80" as="geometry" />
        </mxCell>
        <mxCell id="0njU8YuqFj3tKrnxhGzK-25" value="Оценивание постов" style="ellipse;whiteSpace=wrap;html=1;" parent="1" vertex="1">
          <mxGeometry x="270" y="880" width="120" height="80" as="geometry" />
        </mxCell>
        <mxCell id="0njU8YuqFj3tKrnxhGzK-26" value="Комментирование постов" style="ellipse;whiteSpace=wrap;html=1;" parent="1" vertex="1">
          <mxGeometry x="270" y="1000" width="120" height="80" as="geometry" />
        </mxCell>
        <mxCell id="0njU8YuqFj3tKrnxhGzK-36" value="" style="endArrow=classic;html=1;rounded=0;entryX=0;entryY=0.5;entryDx=0;entryDy=0;exitX=0.5;exitY=0.5;exitDx=0;exitDy=0;exitPerimeter=0;" parent="1" source="0njU8YuqFj3tKrnxhGzK-2" target="0njU8YuqFj3tKrnxhGzK-3" edge="1">
          <mxGeometry width="50" height="50" relative="1" as="geometry">
            <mxPoint x="100" y="620" as="sourcePoint" />
            <mxPoint x="150" y="570" as="targetPoint" />
          </mxGeometry>
        </mxCell>
        <mxCell id="0njU8YuqFj3tKrnxhGzK-37" value="" style="endArrow=classic;html=1;rounded=0;entryX=0;entryY=0.5;entryDx=0;entryDy=0;exitX=0.5;exitY=0.5;exitDx=0;exitDy=0;exitPerimeter=0;" parent="1" source="0njU8YuqFj3tKrnxhGzK-2" target="0njU8YuqFj3tKrnxhGzK-20" edge="1">
          <mxGeometry width="50" height="50" relative="1" as="geometry">
            <mxPoint x="160" y="700" as="sourcePoint" />
            <mxPoint x="330" y="280" as="targetPoint" />
          </mxGeometry>
        </mxCell>
        <mxCell id="0njU8YuqFj3tKrnxhGzK-38" value="" style="endArrow=classic;html=1;rounded=0;entryX=0;entryY=0.5;entryDx=0;entryDy=0;exitX=0.5;exitY=0.5;exitDx=0;exitDy=0;exitPerimeter=0;" parent="1" source="0njU8YuqFj3tKrnxhGzK-2" target="0njU8YuqFj3tKrnxhGzK-21" edge="1">
          <mxGeometry width="50" height="50" relative="1" as="geometry">
            <mxPoint x="95" y="630" as="sourcePoint" />
            <mxPoint x="280" y="330" as="targetPoint" />
          </mxGeometry>
        </mxCell>
        <mxCell id="0njU8YuqFj3tKrnxhGzK-39" value="" style="endArrow=classic;html=1;rounded=0;exitX=0.5;exitY=0.5;exitDx=0;exitDy=0;exitPerimeter=0;" parent="1" source="0njU8YuqFj3tKrnxhGzK-2" target="0njU8YuqFj3tKrnxhGzK-22" edge="1">
          <mxGeometry width="50" height="50" relative="1" as="geometry">
            <mxPoint x="105" y="640" as="sourcePoint" />
            <mxPoint x="290" y="340" as="targetPoint" />
          </mxGeometry>
        </mxCell>
        <mxCell id="0njU8YuqFj3tKrnxhGzK-40" value="" style="endArrow=classic;html=1;rounded=0;exitX=0.5;exitY=0.5;exitDx=0;exitDy=0;exitPerimeter=0;" parent="1" source="0njU8YuqFj3tKrnxhGzK-2" target="0njU8YuqFj3tKrnxhGzK-23" edge="1">
          <mxGeometry width="50" height="50" relative="1" as="geometry">
            <mxPoint x="115" y="650" as="sourcePoint" />
            <mxPoint x="300" y="350" as="targetPoint" />
          </mxGeometry>
        </mxCell>
        <mxCell id="0njU8YuqFj3tKrnxhGzK-42" value="" style="endArrow=classic;html=1;rounded=0;exitX=0.5;exitY=0.5;exitDx=0;exitDy=0;exitPerimeter=0;" parent="1" source="0njU8YuqFj3tKrnxhGzK-2" target="0njU8YuqFj3tKrnxhGzK-24" edge="1">
          <mxGeometry width="50" height="50" relative="1" as="geometry">
            <mxPoint x="125" y="660" as="sourcePoint" />
            <mxPoint x="310" y="360" as="targetPoint" />
          </mxGeometry>
        </mxCell>
        <mxCell id="0njU8YuqFj3tKrnxhGzK-43" value="" style="endArrow=classic;html=1;rounded=0;" parent="1" source="0njU8YuqFj3tKrnxhGzK-2" target="0njU8YuqFj3tKrnxhGzK-25" edge="1">
          <mxGeometry width="50" height="50" relative="1" as="geometry">
            <mxPoint x="135" y="670" as="sourcePoint" />
            <mxPoint x="320" y="370" as="targetPoint" />
          </mxGeometry>
        </mxCell>
        <mxCell id="0njU8YuqFj3tKrnxhGzK-44" value="" style="endArrow=classic;html=1;rounded=0;exitX=0.5;exitY=0.5;exitDx=0;exitDy=0;exitPerimeter=0;" parent="1" source="0njU8YuqFj3tKrnxhGzK-2" target="0njU8YuqFj3tKrnxhGzK-26" edge="1">
          <mxGeometry width="50" height="50" relative="1" as="geometry">
            <mxPoint x="110" y="644" as="sourcePoint" />
            <mxPoint x="312" y="895" as="targetPoint" />
          </mxGeometry>
        </mxCell>
        <mxCell id="0njU8YuqFj3tKrnxhGzK-45" value="Администратор" style="shape=umlActor;verticalLabelPosition=bottom;verticalAlign=top;html=1;outlineConnect=0;" parent="1" vertex="1">
          <mxGeometry x="500" y="580" width="30" height="60" as="geometry" />
        </mxCell>
        <mxCell id="0njU8YuqFj3tKrnxhGzK-46" value="Управление пользоваотелями" style="ellipse;whiteSpace=wrap;html=1;" parent="1" vertex="1">
          <mxGeometry x="580" y="265" width="120" height="80" as="geometry" />
        </mxCell>
        <mxCell id="0njU8YuqFj3tKrnxhGzK-47" value="Управление постами пользователей" style="ellipse;whiteSpace=wrap;html=1;" parent="1" vertex="1">
          <mxGeometry x="580" y="435" width="120" height="80" as="geometry" />
        </mxCell>
        <mxCell id="0njU8YuqFj3tKrnxhGzK-48" value="Удаление чатов" style="ellipse;whiteSpace=wrap;html=1;" parent="1" vertex="1">
          <mxGeometry x="580" y="570" width="120" height="80" as="geometry" />
        </mxCell>
        <mxCell id="0njU8YuqFj3tKrnxhGzK-49" value="Выдача прав" style="ellipse;whiteSpace=wrap;html=1;" parent="1" vertex="1">
          <mxGeometry x="580" y="715" width="120" height="80" as="geometry" />
        </mxCell>
        <mxCell id="0njU8YuqFj3tKrnxhGzK-53" value="Управление комментариями пользоваотелей" style="ellipse;whiteSpace=wrap;html=1;" parent="1" vertex="1">
          <mxGeometry x="580" y="875" width="120" height="80" as="geometry" />
        </mxCell>
        <mxCell id="0njU8YuqFj3tKrnxhGzK-54" value="" style="endArrow=classic;html=1;rounded=0;entryX=0;entryY=0.5;entryDx=0;entryDy=0;exitX=0.5;exitY=0.5;exitDx=0;exitDy=0;exitPerimeter=0;" parent="1" source="0njU8YuqFj3tKrnxhGzK-45" target="0njU8YuqFj3tKrnxhGzK-46" edge="1">
          <mxGeometry width="50" height="50" relative="1" as="geometry">
            <mxPoint x="580" y="630" as="sourcePoint" />
            <mxPoint x="630" y="580" as="targetPoint" />
          </mxGeometry>
        </mxCell>
        <mxCell id="0njU8YuqFj3tKrnxhGzK-55" value="" style="endArrow=classic;html=1;rounded=0;entryX=0;entryY=0.5;entryDx=0;entryDy=0;exitX=0.5;exitY=0.5;exitDx=0;exitDy=0;exitPerimeter=0;" parent="1" source="0njU8YuqFj3tKrnxhGzK-45" target="0njU8YuqFj3tKrnxhGzK-47" edge="1">
          <mxGeometry width="50" height="50" relative="1" as="geometry">
            <mxPoint x="640" y="710" as="sourcePoint" />
            <mxPoint x="810" y="290" as="targetPoint" />
          </mxGeometry>
        </mxCell>
        <mxCell id="0njU8YuqFj3tKrnxhGzK-56" value="" style="endArrow=classic;html=1;rounded=0;entryX=0;entryY=0.5;entryDx=0;entryDy=0;exitX=0.5;exitY=0.5;exitDx=0;exitDy=0;exitPerimeter=0;" parent="1" source="0njU8YuqFj3tKrnxhGzK-45" target="0njU8YuqFj3tKrnxhGzK-48" edge="1">
          <mxGeometry width="50" height="50" relative="1" as="geometry">
            <mxPoint x="575" y="640" as="sourcePoint" />
            <mxPoint x="760" y="340" as="targetPoint" />
          </mxGeometry>
        </mxCell>
        <mxCell id="0njU8YuqFj3tKrnxhGzK-57" value="" style="endArrow=classic;html=1;rounded=0;exitX=0.5;exitY=0.5;exitDx=0;exitDy=0;exitPerimeter=0;" parent="1" source="0njU8YuqFj3tKrnxhGzK-45" target="0njU8YuqFj3tKrnxhGzK-49" edge="1">
          <mxGeometry width="50" height="50" relative="1" as="geometry">
            <mxPoint x="585" y="650" as="sourcePoint" />
            <mxPoint x="770" y="350" as="targetPoint" />
          </mxGeometry>
        </mxCell>
        <mxCell id="0njU8YuqFj3tKrnxhGzK-61" value="" style="endArrow=classic;html=1;rounded=0;exitX=0.5;exitY=0.5;exitDx=0;exitDy=0;exitPerimeter=0;" parent="1" source="0njU8YuqFj3tKrnxhGzK-45" target="0njU8YuqFj3tKrnxhGzK-53" edge="1">
          <mxGeometry width="50" height="50" relative="1" as="geometry">
            <mxPoint x="590" y="654" as="sourcePoint" />
            <mxPoint x="792" y="905" as="targetPoint" />
          </mxGeometry>
        </mxCell>
        <mxCell id="0njU8YuqFj3tKrnxhGzK-81" value="" style="endArrow=classic;html=1;rounded=0;entryX=1;entryY=0.5;entryDx=0;entryDy=0;" parent="1" source="0njU8YuqFj3tKrnxhGzK-45" target="0njU8YuqFj3tKrnxhGzK-26" edge="1">
          <mxGeometry width="50" height="50" relative="1" as="geometry">
            <mxPoint x="575" y="635" as="sourcePoint" />
            <mxPoint x="801" y="905" as="targetPoint" />
          </mxGeometry>
        </mxCell>
        <mxCell id="0njU8YuqFj3tKrnxhGzK-82" value="" style="endArrow=classic;html=1;rounded=0;" parent="1" source="0njU8YuqFj3tKrnxhGzK-45" target="0njU8YuqFj3tKrnxhGzK-25" edge="1">
          <mxGeometry width="50" height="50" relative="1" as="geometry">
            <mxPoint x="575" y="635" as="sourcePoint" />
            <mxPoint x="400" y="1050" as="targetPoint" />
          </mxGeometry>
        </mxCell>
        <mxCell id="0njU8YuqFj3tKrnxhGzK-85" value="" style="endArrow=classic;html=1;rounded=0;" parent="1" source="0njU8YuqFj3tKrnxhGzK-45" target="0njU8YuqFj3tKrnxhGzK-24" edge="1">
          <mxGeometry width="50" height="50" relative="1" as="geometry">
            <mxPoint x="560" y="644" as="sourcePoint" />
            <mxPoint x="367" y="894" as="targetPoint" />
          </mxGeometry>
        </mxCell>
        <mxCell id="0njU8YuqFj3tKrnxhGzK-87" value="" style="endArrow=classic;html=1;rounded=0;" parent="1" source="0njU8YuqFj3tKrnxhGzK-45" target="0njU8YuqFj3tKrnxhGzK-23" edge="1">
          <mxGeometry width="50" height="50" relative="1" as="geometry">
            <mxPoint x="560" y="637" as="sourcePoint" />
            <mxPoint x="379" y="780" as="targetPoint" />
          </mxGeometry>
        </mxCell>
        <mxCell id="0njU8YuqFj3tKrnxhGzK-89" value="" style="endArrow=classic;html=1;rounded=0;" parent="1" source="0njU8YuqFj3tKrnxhGzK-45" target="0njU8YuqFj3tKrnxhGzK-22" edge="1">
          <mxGeometry width="50" height="50" relative="1" as="geometry">
            <mxPoint x="560" y="629" as="sourcePoint" />
            <mxPoint x="395" y="675" as="targetPoint" />
          </mxGeometry>
        </mxCell>
        <mxCell id="0njU8YuqFj3tKrnxhGzK-91" value="" style="endArrow=classic;html=1;rounded=0;" parent="1" source="0njU8YuqFj3tKrnxhGzK-45" target="0njU8YuqFj3tKrnxhGzK-21" edge="1">
          <mxGeometry width="50" height="50" relative="1" as="geometry">
            <mxPoint x="560" y="621" as="sourcePoint" />
            <mxPoint x="397" y="583" as="targetPoint" />
          </mxGeometry>
        </mxCell>
        <mxCell id="0njU8YuqFj3tKrnxhGzK-93" value="" style="endArrow=classic;html=1;rounded=0;" parent="1" source="0njU8YuqFj3tKrnxhGzK-45" target="0njU8YuqFj3tKrnxhGzK-20" edge="1">
          <mxGeometry width="50" height="50" relative="1" as="geometry">
            <mxPoint x="560" y="614" as="sourcePoint" />
            <mxPoint x="380" y="480" as="targetPoint" />
          </mxGeometry>
        </mxCell>
        <mxCell id="0njU8YuqFj3tKrnxhGzK-94" value="" style="endArrow=classic;html=1;rounded=0;" parent="1" source="0njU8YuqFj3tKrnxhGzK-45" target="0njU8YuqFj3tKrnxhGzK-3" edge="1">
          <mxGeometry width="50" height="50" relative="1" as="geometry">
            <mxPoint x="560" y="606" as="sourcePoint" />
            <mxPoint x="368" y="365" as="targetPoint" />
          </mxGeometry>
        </mxCell>
      </root>
    </mxGraphModel>
  </diagram>
</mxfile>
